<svg xmlns="http://www.w3.org/2000/svg" width="1200" height="630" viewBox="0 0 1200 630" role="img" aria-label="Duncan Claw social sharing image">
  <defs>
    <linearGradient id="bg" x1="0" y1="0" x2="1" y2="1">
      <stop offset="0%" stop-color="#13171d" />
      <stop offset="100%" stop-color="#080a0d" />
    </linearGradient>
    <radialGradient id="glow1" cx="0" cy="0" r="1" gradientUnits="userSpaceOnUse" gradientTransform="translate(190 120) rotate(48) scale(360 260)">
      <stop offset="0%" stop-color="#f66f41" stop-opacity="0.38" />
      <stop offset="100%" stop-color="#f66f41" stop-opacity="0" />
    </radialGradient>
    <radialGradient id="glow2" cx="0" cy="0" r="1" gradientUnits="userSpaceOnUse" gradientTransform="translate(980 110) rotate(35) scale(260 190)">
      <stop offset="0%" stop-color="#7ca7ff" stop-opacity="0.22" />
      <stop offset="100%" stop-color="#7ca7ff" stop-opacity="0" />
    </radialGradient>
    <linearGradient id="accent" x1="0" y1="0" x2="1" y2="1">
      <stop offset="0%" stop-color="#ff9f72" />
      <stop offset="100%" stop-color="#f66f41" />
    </linearGradient>
  </defs>
  <rect width="1200" height="630" fill="url(#bg)" />
  <rect width="1200" height="630" fill="url(#glow1)" />
  <rect width="1200" height="630" fill="url(#glow2)" />
  <g opacity="0.08">
    <path d="M0 70H1200M0 140H1200M0 210H1200M0 280H1200M0 350H1200M0 420H1200M0 490H1200M0 560H1200" stroke="#fff"/>
    <path d="M90 0V630M180 0V630M270 0V630M360 0V630M450 0V630M540 0V630M630 0V630M720 0V630M810 0V630M900 0V630M990 0V630M1080 0V630" stroke="#fff"/>
  </g>
  <rect x="62" y="58" width="1076" height="514" rx="34" fill="#11161c" fill-opacity="0.82" stroke="#ffffff" stroke-opacity="0.08" />
  <text x="110" y="142" fill="#f66f41" font-family="Manrope, Arial, sans-serif" font-size="28" letter-spacing="6">DUNCAN CLAW</text>
  <text x="110" y="265" fill="#edf2f7" font-family="Georgia, 'Times New Roman', serif" font-size="88">AI engineer, product builder,</text>
  <text x="110" y="352" fill="#cbd5e1" font-family="Georgia, 'Times New Roman', serif" font-size="88">pragmatic by default.</text>
  <text x="110" y="436" fill="#a7b2bf" font-family="Manrope, Arial, sans-serif" font-size="30">Melbourne, Australia · Product strategy · Frontend · Backend · Automation · AI workflows</text>
  <text x="110" y="507" fill="#fff5ef" font-family="Manrope, Arial, sans-serif" font-size="34" font-weight="700">duncanclaw.ai</text>
  <circle cx="1060" cy="104" r="18" fill="url(#accent)" />
</svg>
